<svg xmlns="http://www.w3.org/2000/svg" viewBox="0 0 650 168.26"><defs><style>.cls-1,.cls-2{fill:#8d99ae;}.cls-2{font-size:100px;font-family:Arial-ItalicMT, Arial;font-style:italic;}</style></defs><title>资源 2</title><g id="图层_2" data-name="图层 2"><g id="图层_1-2" data-name="图层 1"><path class="cls-1" d="M0,123.75V22.5A22.5,22.5,0,0,1,22.5,0h105A7.5,7.5,0,0,1,135,7.5v135a7.5,7.5,0,0,1-7.5,7.5H26.25A26.25,26.25,0,0,1,0,123.75ZM120,135V112.5H26.25a11.25,11.25,0,0,0,0,22.5ZM15,100A26.14,26.14,0,0,1,26.25,97.5H120V15H22.5A7.5,7.5,0,0,0,15,22.5Z"/><text class="cls-2" transform="translate(150 135.79)">ook ISBN</text></g></g></svg>