<svg xmlns="http://www.w3.org/2000/svg" viewBox="0 0 43.14 40"><defs><style>.cls-1{fill:#ef233c;}</style></defs><title>资源 1</title><g id="图层_2" data-name="图层 2"><g id="图层_1-2" data-name="图层 1"><path class="cls-1" d="M23.53,21.55V32.5l3.58-3.58,2.77,2.77L21.57,40l-8.31-8.31L16,28.92l3.58,3.58V21.55ZM21.57,0A13.72,13.72,0,0,1,35.19,12.14a10.78,10.78,0,0,1-1.87,21.13V29.32a6.86,6.86,0,0,0-1.94-13.58l-.24,0a9.8,9.8,0,1,0-19.16,0A6.86,6.86,0,0,0,9.46,29.26l.35.06v3.95A10.78,10.78,0,0,1,7.94,12.14,13.72,13.72,0,0,1,21.57,0Z"/></g></g></svg>